<mxfile host="app.diagrams.net" modified="2023-11-30T07:02:13.480Z" agent="Mozilla/5.0 (Windows NT 10.0; Win64; x64) AppleWebKit/537.36 (KHTML, like Gecko) Chrome/119.0.0.0 Safari/537.36 Edg/119.0.0.0" etag="lcbfLGyLZIRC-nl0JvJ8" version="22.1.5" type="device">
  <diagram name="Страница — 1" id="1wM0IOQd8PK5Gi4DsjG4">
    <mxGraphModel dx="2026" dy="1243" grid="0" gridSize="10" guides="1" tooltips="1" connect="1" arrows="1" fold="1" page="0" pageScale="1" pageWidth="827" pageHeight="1169" math="0" shadow="0">
      <root>
        <mxCell id="0" />
        <mxCell id="1" parent="0" />
        <mxCell id="w-Z4XSxLy0HiIYLjlyzw-1" value="Сеть Filial2:&lt;br&gt;192.168.110.0/24" style="ellipse;shape=cloud;whiteSpace=wrap;html=1;fontSize=16;" vertex="1" parent="1">
          <mxGeometry x="32" y="71" width="205" height="93" as="geometry" />
        </mxCell>
        <mxCell id="w-Z4XSxLy0HiIYLjlyzw-2" value="Сеть Zentr:&lt;br&gt;192.168.10.0/24" style="ellipse;shape=cloud;whiteSpace=wrap;html=1;fontSize=16;" vertex="1" parent="1">
          <mxGeometry x="-52" y="-104" width="180" height="85" as="geometry" />
        </mxCell>
        <mxCell id="w-Z4XSxLy0HiIYLjlyzw-3" value="Сеть Filial1:&lt;br&gt;192.168.30.0/24" style="ellipse;shape=cloud;whiteSpace=wrap;html=1;fontSize=16;" vertex="1" parent="1">
          <mxGeometry x="212" y="-76" width="204" height="87" as="geometry" />
        </mxCell>
        <mxCell id="w-Z4XSxLy0HiIYLjlyzw-4" value="" style="endArrow=none;html=1;rounded=0;fontSize=12;startSize=8;endSize=8;curved=1;entryX=0.8;entryY=0.8;entryDx=0;entryDy=0;entryPerimeter=0;exitX=0.4;exitY=0.1;exitDx=0;exitDy=0;exitPerimeter=0;" edge="1" parent="1" source="w-Z4XSxLy0HiIYLjlyzw-1" target="w-Z4XSxLy0HiIYLjlyzw-2">
          <mxGeometry width="50" height="50" relative="1" as="geometry">
            <mxPoint x="175" y="225" as="sourcePoint" />
            <mxPoint x="225" y="175" as="targetPoint" />
          </mxGeometry>
        </mxCell>
        <mxCell id="w-Z4XSxLy0HiIYLjlyzw-5" value="" style="endArrow=none;html=1;rounded=0;fontSize=12;startSize=8;endSize=8;curved=1;entryX=0.875;entryY=0.5;entryDx=0;entryDy=0;entryPerimeter=0;exitX=0.07;exitY=0.4;exitDx=0;exitDy=0;exitPerimeter=0;" edge="1" parent="1" source="w-Z4XSxLy0HiIYLjlyzw-3" target="w-Z4XSxLy0HiIYLjlyzw-2">
          <mxGeometry width="50" height="50" relative="1" as="geometry">
            <mxPoint x="124" y="90" as="sourcePoint" />
            <mxPoint x="57" y="-13" as="targetPoint" />
          </mxGeometry>
        </mxCell>
      </root>
    </mxGraphModel>
  </diagram>
</mxfile>
